<svg width="61" height="35" viewBox="0 0 61 35" fill="none" xmlns="http://www.w3.org/2000/svg">
<g clip-path="url(#clip0_39_160)">
<path d="M39.5262 0.290294L30.6639 15.9675C30.5622 16.1473 30.5622 16.3686 30.6639 16.5484L41.0123 34.855C41.1216 35.0485 41.395 35.0485 41.5045 34.855L51.233 17.6451L60.9616 0.435576C61.0708 0.242047 60.9341 0 60.7153 0H40.0187C39.8155 0 39.6276 0.110781 39.5262 0.290294Z" fill="white"/>
<path d="M0.284525 0C0.0657434 0 -0.0712261 0.242047 0.0382967 0.435576L9.76683 17.6451L19.4954 34.855C19.6046 35.0485 19.878 35.0485 19.9876 34.855L28.2662 20.2101C33.3435 11.2277 26.9968 0 16.8417 0H0.284525Z" fill="white"/>
</g>
<defs>
<clipPath id="clip0_39_160">
<rect width="61" height="35" fill="white"/>
</clipPath>
</defs>
</svg>
