<svg width="46" height="72" viewBox="0 0 46 72" fill="none" xmlns="http://www.w3.org/2000/svg">
<g clip-path="url(#clip0_44_296)">
<path d="M26.9645 71.091C21.6051 71.091 18.6052 69.7456 17.0351 68.62C16.0965 67.9606 15.5614 66.9581 15.5614 65.8765C15.4562 64.5048 15.3509 63.8189 15.1316 63.0979C15.0001 62.667 14.9036 62.2977 14.8071 61.9811C14.351 60.3544 14.2457 59.9674 12.3335 57.347C11.2633 55.8698 10.5879 53.5747 9.93005 51.35C9.43884 49.6881 8.98272 48.1141 8.4301 47.1732L1.44789 38.9603C0.211093 37.4654 -0.253804 35.1792 2.11453 33.2183C3.71097 31.8905 5.66704 32.0048 7.474 33.5348L14.1667 39.9451V16.4582C14.1667 15.4118 14.5702 14.427 15.3158 13.6796C16.0702 12.9321 17.0526 12.5276 18.0964 12.5276C18.9824 12.5276 19.7981 12.8178 20.456 13.3102V12.5452C20.456 10.3733 22.2191 8.60583 24.3857 8.60583C25.4295 8.60583 26.4119 9.01033 27.1575 9.75776C27.9031 10.514 28.3066 11.4988 28.3066 12.5452V26.3419C28.9645 25.8407 29.789 25.5417 30.6749 25.5417C31.7188 25.5417 32.7012 25.9462 33.4468 26.6936C33.938 27.1861 34.2801 27.784 34.4555 28.4347C35.0871 27.9599 35.8853 27.7049 36.8063 27.7049C39.1045 27.7049 40.7799 29.3492 40.7799 31.6179V48.9407C40.7799 50.3916 40.5693 51.8952 40.1483 53.4077C39.201 56.8546 38.6922 59.1761 38.5519 62.2625C38.4992 63.3617 38.5431 64.5048 38.6747 65.6655C38.8326 67.0373 38.1221 68.3475 36.8677 69.0333C35.1572 69.9742 32.0521 71.1086 26.947 71.1086L26.9645 71.091ZM4.54427 33.8602C4.05306 33.8602 3.5794 34.0448 3.12327 34.4141C1.46544 35.7947 1.95665 37.0961 2.65838 37.9491L9.67568 46.206C9.67568 46.206 9.7283 46.2675 9.74585 46.3027C10.4213 47.4106 10.9125 49.1077 11.4388 50.9016C12.0528 52.9944 12.6931 55.1663 13.6054 56.415C15.5965 59.1585 15.7983 59.7037 16.3158 61.5502C16.4035 61.8668 16.5 62.2185 16.6316 62.6406C16.886 63.476 17 64.241 17.1228 65.7886C17.1228 65.8062 17.1228 65.8326 17.1228 65.8502C17.1228 66.4305 17.421 66.9669 17.9473 67.3362C19.0789 68.154 21.763 69.517 26.9645 69.517C31.7363 69.517 34.5871 68.4969 36.1397 67.6352C36.8502 67.2483 37.2361 66.5624 37.1484 65.8502C36.9993 64.5839 36.9554 63.3529 37.0168 62.1658C37.1659 58.9298 37.6922 56.5293 38.6659 52.968C39.0518 51.5874 39.2448 50.2245 39.2448 48.9143V31.5915C39.2448 30.167 38.2975 29.2437 36.8326 29.2437C36.1133 29.2437 35.552 29.4635 35.1748 29.8944C34.8152 30.3077 34.6222 30.8968 34.6222 31.6003V35.3199C34.6222 35.7507 34.2713 36.1025 33.8415 36.1025C33.4117 36.1025 33.0608 35.7507 33.0608 35.3199V29.4547C33.0608 28.8216 32.8152 28.2237 32.3679 27.7752C31.9205 27.3268 31.324 27.0805 30.6925 27.0805C29.3855 27.0805 28.3241 28.1445 28.3241 29.4547V35.3199C28.3241 35.7507 27.9733 36.1025 27.5435 36.1025C27.1137 36.1025 26.754 35.7507 26.754 35.3199V12.5364C26.754 11.9033 26.5084 11.3054 26.0611 10.8569C25.6137 10.4173 25.0172 10.1622 24.3857 10.1622C23.0787 10.1622 22.0174 11.2262 22.0174 12.5364V16.3C22.0174 16.3527 22.0174 16.3967 22.0174 16.4495V35.3286C22.0174 35.7595 21.6665 36.1113 21.2367 36.1113C20.8069 36.1113 20.4472 35.7595 20.4472 35.3286V16.3351C20.4034 15.0777 19.3683 14.0753 18.0877 14.0753C17.4561 14.0753 16.8596 14.3215 16.4123 14.7699C15.9737 15.2184 15.7193 15.8163 15.7193 16.4495V41.7653C15.7193 42.0819 15.5351 42.3633 15.2457 42.4864C14.9562 42.6095 14.6229 42.5479 14.4036 42.3369L6.4214 34.6955C5.76353 34.1416 5.1232 33.8602 4.51796 33.8602H4.54427Z" fill="#DFFE00"/>
<path d="M2.00049 6.63617H14.6579" stroke="#BFDED5" stroke-miterlimit="10" stroke-linecap="round"/>
<path d="M7.07049 12.2111L1.50928 6.64496L7.07926 1.06122" stroke="#BFDED5" stroke-miterlimit="10" stroke-linecap="round"/>
<path d="M43.999 6.63617H31.3416" stroke="#BFDED5" stroke-miterlimit="10" stroke-linecap="round"/>
<path d="M38.9377 1.06122L44.4901 6.62737L38.9202 12.2111" stroke="#BFDED5" stroke-miterlimit="10" stroke-linecap="round"/>
</g>
<defs>
<clipPath id="clip0_44_296">
<rect width="45.4546" height="70.9091" fill="white" transform="translate(0.272461 0.181885)"/>
</clipPath>
</defs>
</svg>
