<svg width="50" height="76" viewBox="0 0 50 76" fill="none" xmlns="http://www.w3.org/2000/svg">
<g clip-path="url(#clip0_44_288)">
<path d="M21.8814 25.6314C16.4299 24.6906 12.1878 20.303 11.6282 14.869" stroke="#BFDED5" stroke-miterlimit="10" stroke-linecap="round"/>
<path d="M35.2396 19.1775C33.8857 21.7538 31.6203 23.7937 28.8674 24.9016" stroke="#BFDED5" stroke-miterlimit="10" stroke-linecap="round"/>
<path d="M11.8179 11.1672C12.9822 5.61018 18.0366 1.4248 24.0838 1.4248C30.9975 1.4248 36.6025 6.88514 36.6025 13.6204C36.6025 14.0425 36.5845 14.4558 36.5393 14.869" stroke="#BFDED5" stroke-miterlimit="10" stroke-linecap="round"/>
<path d="M42.3338 9.7956L36.6115 15.3614L30.8892 9.7868" stroke="#BFDED5" stroke-miterlimit="10" stroke-linecap="round"/>
<path d="M8.10815 22.0352L11.0505 14.702L18.596 17.5684" stroke="#BFDED5" stroke-miterlimit="10" stroke-linecap="round"/>
<path d="M45.8086 72.9016C44.0035 73.86 40.9528 74.9151 36.1872 75.0734C30.6725 75.2581 27.5405 73.9831 25.8798 72.884C24.905 72.2421 24.3274 71.2573 24.2732 70.1758C24.2461 69.9912 24.21 69.7889 24.183 69.5779C23.8761 67.5292 23.3616 64.1176 20.7893 61.6292C19.1917 60.6532 17.6122 58.7715 16.0869 56.9426C14.9226 55.5534 13.8214 54.2344 12.9008 53.5662L2.86421 48.6158C1.08614 47.7102 -0.294795 45.7494 1.10419 42.9796C2.06092 41.0892 3.96535 40.4209 6.31203 41.1419C6.33911 41.1419 6.36619 41.1595 6.39327 41.1683L21.8904 47.7893L21.0691 19.5204C21.033 18.4653 21.4121 17.4453 22.1432 16.654C22.8923 15.8626 23.8941 15.4142 24.9682 15.3702C27.1524 15.2999 28.9847 16.9441 29.1381 19.116L29.4269 27.3812C30.0858 26.8536 30.9162 26.5195 31.8278 26.4843C33.6871 26.4228 35.2936 27.6186 35.8262 29.3068C36.5121 28.7001 37.3966 28.322 38.3804 28.2869C39.4545 28.2517 40.4925 28.6386 41.2867 29.3684C41.8012 29.8608 42.1803 30.4499 42.3788 31.1093C43.0106 30.5994 43.8229 30.318 44.7616 30.2916C47.1264 30.2125 48.9044 31.8392 48.9857 34.1517L49.6084 51.9043C49.6626 53.3903 49.5001 54.9291 49.121 56.4942C48.2726 60.0641 47.8304 62.4557 47.7943 65.6299C47.7762 66.7642 47.8574 67.9336 48.038 69.1119C48.2455 70.5099 47.5596 71.864 46.305 72.6026C46.1426 72.6993 45.9711 72.7961 45.7906 72.8928L45.8086 72.9016ZM3.47796 42.6631C2.91836 42.9621 2.67467 43.4369 2.55733 43.6743C1.55548 45.6527 2.57539 46.699 3.61334 47.2266L13.6951 52.2033C13.6951 52.2033 13.7673 52.2473 13.8034 52.2649C14.9045 53.0386 16.0869 54.4543 17.3415 55.9578C18.8036 57.7076 20.32 59.5189 21.7099 60.3367C21.7641 60.3718 21.8092 60.407 21.8543 60.4422C24.8689 63.2998 25.4375 67.0807 25.7805 69.3405C25.8166 69.5691 25.8437 69.7801 25.8798 69.9648C25.8798 69.9999 25.8798 70.0263 25.8888 70.0615C25.9069 70.6682 26.2408 71.2222 26.7914 71.5827C27.9918 72.374 30.7898 73.6841 36.1421 73.5083C41.043 73.35 43.9313 72.2069 45.5017 71.2749C46.2238 70.8529 46.5938 70.1318 46.4855 69.3845C46.287 68.0919 46.1967 66.8345 46.2148 65.6211C46.2509 62.3062 46.7022 59.8267 47.5776 56.1425C47.9206 54.7093 48.0741 53.3024 48.0289 51.9571L47.4062 34.2044C47.352 32.7272 46.3502 31.804 44.8429 31.8567C44.1027 31.8831 43.5431 32.1205 43.1731 32.5777C42.8211 32.9998 42.6406 33.6768 42.6677 34.4242L42.803 38.1876C42.8211 38.6184 42.4691 38.9789 42.0268 38.9965C41.5846 39.0141 41.2145 38.6712 41.1965 38.2403L40.9889 32.2348C40.9618 31.5754 40.691 30.9687 40.2036 30.5114C39.7253 30.0718 39.1115 29.8432 38.4707 29.8608C37.1259 29.9047 36.0789 31.039 36.124 32.3931L36.3316 38.3986C36.3496 38.8294 35.9976 39.1899 35.5554 39.2075C35.1131 39.2251 34.7431 38.8822 34.725 38.4513L34.4362 30.4235C34.3911 29.0694 33.2628 28.0055 31.918 28.0494C30.6183 28.0934 29.5894 29.1661 29.5713 30.4587L29.8601 38.6008C29.8782 39.0317 29.5262 39.3922 29.0839 39.4098C28.6417 39.4273 28.2716 39.0844 28.2536 38.6536L27.9647 30.6257C27.9647 30.573 27.9647 30.5202 27.9647 30.4675L27.5676 19.1863C27.4774 17.885 26.3762 16.8826 25.0585 16.9265C24.4176 16.9441 23.8129 17.2167 23.3616 17.7003C22.9194 18.1839 22.6847 18.8082 22.7027 19.4677L23.5602 48.9763C23.5602 49.2401 23.4338 49.4951 23.2082 49.6446C22.9825 49.7941 22.6937 49.8204 22.441 49.7149L5.82465 42.6191C4.71448 42.285 3.9834 42.4081 3.49601 42.6631H3.47796Z" fill="#DFFE00"/>
</g>
<defs>
<clipPath id="clip0_44_288">
<rect width="49.0909" height="74.5454" fill="white" transform="translate(0.544678 0.545532)"/>
</clipPath>
</defs>
</svg>
